<svg id="Layer_1" data-name="Layer 1" xmlns="http://www.w3.org/2000/svg" xmlns:xlink="http://www.w3.org/1999/xlink" viewBox="0 0 311.68 131.1"><defs><style>.cls-1{fill:url(#linear-gradient);}.cls-2{fill:url(#linear-gradient-2);}.cls-3{fill:url(#linear-gradient-3);}.cls-4{fill:url(#linear-gradient-4);}.cls-5{fill:url(#linear-gradient-5);}.cls-6{fill:url(#linear-gradient-6);}.cls-7{fill:url(#linear-gradient-7);}.cls-8{fill:url(#linear-gradient-8);}.cls-9{fill:url(#linear-gradient-9);}.cls-10{fill:url(#linear-gradient-10);}.cls-11{fill:url(#linear-gradient-11);}.cls-12{fill:url(#linear-gradient-12);}.cls-13{fill:url(#linear-gradient-13);}.cls-14{fill:url(#linear-gradient-14);}.cls-15{fill:url(#linear-gradient-15);}.cls-16{fill:url(#linear-gradient-16);}.cls-17{fill:url(#linear-gradient-17);}.cls-18{fill:url(#linear-gradient-18);}.cls-19{fill:url(#linear-gradient-19);}.cls-20{fill:url(#linear-gradient-20);}.cls-21{fill:url(#linear-gradient-21);}.cls-22{fill:url(#linear-gradient-22);}.cls-23{fill:url(#linear-gradient-23);}.cls-24{fill:url(#linear-gradient-24);}.cls-25{fill:url(#linear-gradient-25);}.cls-26{fill:url(#linear-gradient-26);}.cls-27{fill:url(#linear-gradient-27);}.cls-28{fill:url(#linear-gradient-28);}.cls-29{fill:url(#linear-gradient-29);}</style><linearGradient id="linear-gradient" x1="59.89" y1="128.89" x2="59.3" y2="0.3" gradientUnits="userSpaceOnUse"><stop offset="0" stop-color="#226cb3"/><stop offset="1" stop-color="#2396b1"/></linearGradient><linearGradient id="linear-gradient-2" x1="162.43" y1="128.42" x2="161.84" y2="-0.17" xlink:href="#linear-gradient"/><linearGradient id="linear-gradient-3" x1="218.4" y1="128.16" x2="217.81" y2="-0.43" xlink:href="#linear-gradient"/><linearGradient id="linear-gradient-4" x1="277.72" y1="127.89" x2="277.13" y2="-0.7" xlink:href="#linear-gradient"/><linearGradient id="linear-gradient-5" x1="225.46" y1="128.13" x2="224.87" y2="-0.46" xlink:href="#linear-gradient"/><linearGradient id="linear-gradient-6" x1="144.74" y1="128.5" x2="144.15" y2="-0.09" xlink:href="#linear-gradient"/><linearGradient id="linear-gradient-7" x1="160.48" y1="128.43" x2="159.89" y2="-0.16" xlink:href="#linear-gradient"/><linearGradient id="linear-gradient-8" x1="175.85" y1="128.36" x2="175.26" y2="-0.24" xlink:href="#linear-gradient"/><linearGradient id="linear-gradient-9" x1="191.36" y1="128.29" x2="190.77" y2="-0.31" xlink:href="#linear-gradient"/><linearGradient id="linear-gradient-10" x1="206.19" y1="128.22" x2="205.59" y2="-0.38" xlink:href="#linear-gradient"/><linearGradient id="linear-gradient-11" x1="221.39" y1="128.15" x2="220.8" y2="-0.45" xlink:href="#linear-gradient"/><linearGradient id="linear-gradient-12" x1="237.05" y1="128.08" x2="236.46" y2="-0.52" xlink:href="#linear-gradient"/><linearGradient id="linear-gradient-13" x1="254.52" y1="127.99" x2="253.93" y2="-0.6" xlink:href="#linear-gradient"/><linearGradient id="linear-gradient-14" x1="272.43" y1="127.91" x2="271.84" y2="-0.68" xlink:href="#linear-gradient"/><linearGradient id="linear-gradient-15" x1="288.69" y1="127.84" x2="288.1" y2="-0.76" xlink:href="#linear-gradient"/><linearGradient id="linear-gradient-16" x1="304.96" y1="127.76" x2="304.36" y2="-0.83" xlink:href="#linear-gradient"/><linearGradient id="linear-gradient-17" x1="145.55" y1="128.5" x2="144.96" y2="-0.1" xlink:href="#linear-gradient"/><linearGradient id="linear-gradient-18" x1="164.42" y1="128.41" x2="163.82" y2="-0.18" xlink:href="#linear-gradient"/><linearGradient id="linear-gradient-19" x1="177.2" y1="128.35" x2="176.61" y2="-0.24" xlink:href="#linear-gradient"/><linearGradient id="linear-gradient-20" x1="191.88" y1="128.28" x2="191.29" y2="-0.31" xlink:href="#linear-gradient"/><linearGradient id="linear-gradient-21" x1="205.44" y1="128.22" x2="204.85" y2="-0.37" xlink:href="#linear-gradient"/><linearGradient id="linear-gradient-22" x1="217.26" y1="128.17" x2="216.67" y2="-0.43" xlink:href="#linear-gradient"/><linearGradient id="linear-gradient-23" x1="229.98" y1="128.11" x2="229.38" y2="-0.48" xlink:href="#linear-gradient"/><linearGradient id="linear-gradient-24" x1="243.43" y1="128.05" x2="242.84" y2="-0.55" xlink:href="#linear-gradient"/><linearGradient id="linear-gradient-25" x1="256.61" y1="127.99" x2="256.01" y2="-0.61" xlink:href="#linear-gradient"/><linearGradient id="linear-gradient-26" x1="268.38" y1="127.93" x2="267.79" y2="-0.66" xlink:href="#linear-gradient"/><linearGradient id="linear-gradient-27" x1="278.28" y1="127.89" x2="277.69" y2="-0.71" xlink:href="#linear-gradient"/><linearGradient id="linear-gradient-28" x1="289.26" y1="127.83" x2="288.67" y2="-0.76" xlink:href="#linear-gradient"/><linearGradient id="linear-gradient-29" x1="303.95" y1="127.77" x2="303.36" y2="-0.83" xlink:href="#linear-gradient"/></defs><path class="cls-1" d="M111.39,52.57l7.74,3.56s0-4.24-1.84-6.19c-3.55-4.17-13.57-6.36-16.38-7.09A19.9,19.9,0,0,0,86.3,31.58S89,25.63,76,18.43c0,0,1.67-13.88-15.86-14.82s-28.8-1.14-44,11.17c0,0,12.26-2.09,15.39,5.89,0,0-16.75-4.85-29.11,14.72,0,0,8.29-4.23,17.06,0,0,0-26.14,3.91-17.84,33.64,0,0,3.75-9.23,10.33-10.64,0,0-6.58,8.77-2,17.53S32.3,92,32.3,92s35.37,11.27,35.06,37.41c0,0,21.6-7.67,14.09-34.28,0,0,6.26,4.54,7.2,9.86,0,0,4.53-12.83-4.23-23.79S61.57,61.37,59.38,46c0,0,2.82,5.16,7,7.35,0,0-6.1-13.46,2.82-23,0,0-5.64,19.4,6.88,24.1,0,0-2.81.63-4.69-.47,0,0,3.44,5.59,15,8.19,0,0-8,.42-10.33-1,0,0,15.66,13.62,11.43,20,0,0,1.25,6,11,10.33,0,0,10.17-4.3,4.53-10.95l.08-3.45-2.66,1.88-1.17-3.52s-5.17,3.6-6.58-2,3.72-8.53,12-8.93c0,0,.65,4.51-.6,7.42,0,0,8.45-2.88,11.5-7.42.53-.78,2-3.61,2.48-4.46A34,34,0,0,1,111.39,52.57ZM71.56,104C69.11,92,50.67,78.88,50.67,78.88S32.89,70,32,56.66,44.89,37.1,44.89,37.1c-12.91,17.77-1,25.24,14,38C74.45,86.44,71.56,104,71.56,104ZM93.45,43.58c.57,2.4-.58,6.1-.58,6.1C92.77,43.42,87.1,39,87.29,39c3.23.11,4.54.53,6.57,2.14S93.45,43.58,93.45,43.58Z"/><path class="cls-2" d="M152.49,41.29A16.59,16.59,0,0,0,155.56,48a12.56,12.56,0,0,0,5.65,4,25,25,0,0,0,8.58,1.29c.71,0,1.65,0,2.8-.09s2.39-.17,3.7-.31,2.64-.35,4-.58a30.73,30.73,0,0,0,3.74-.89L186,60.23a41.53,41.53,0,0,1-4.22,1.34c-1.57.41-3.21.75-4.9,1s-3.39.48-5.11.62-3.35.23-4.89.23A34.69,34.69,0,0,1,152.93,61a22.42,22.42,0,0,1-8.85-6.67,25.42,25.42,0,0,1-4.62-9.92,53.74,53.74,0,0,1-1.34-12.28,51.62,51.62,0,0,1,1.25-11,27.87,27.87,0,0,1,4.54-10.32A24.69,24.69,0,0,1,153,3.17q5.78-3,14.77-3a54.87,54.87,0,0,1,8.89.66A47.25,47.25,0,0,1,184,2.68V19.85h-9V10.68a26.06,26.06,0,0,0-3.6-.62c-1.22-.12-2.36-.18-3.43-.18a17,17,0,0,0-7.6,1.56,13,13,0,0,0-5.12,4.45,19.9,19.9,0,0,0-2.84,6.94,41.75,41.75,0,0,0-.89,9A42.13,42.13,0,0,0,152.49,41.29Z"/><path class="cls-3" d="M192.92,54.1h6.23V9.88H193V1.43h50v18h-9.16V9.88h-22V27l20.46-.62v8.9l-20.46-.54V54.1h8.36v8.45H192.92Z"/><path class="cls-4" d="M308,1.43V10H303q-4.54,13.26-8.9,26.38t-8.89,26.2H269.42q-4.53-13.08-9-26.2T251.27,10h-5V1.43h23.58V10h-5.25q2.49,8.46,5.07,16.5t5.16,16.42c.47,1.42.9,2.86,1.29,4.31s.81,2.92,1.29,4.41h.35c.48-1.49.92-3,1.34-4.41s.83-3,1.24-4.49q2.58-8.19,5-16.41t5-16.33h-5.34V1.43Z"/><rect class="cls-5" x="138.79" y="74.3" width="172.89" height="7.22"/><path class="cls-6" d="M138.6,105.33H140v-9.4h-1.29V94.1h6.18a6.74,6.74,0,0,1,2.84.52A4.53,4.53,0,0,1,149.47,96a5.44,5.44,0,0,1,.92,2.06,11.18,11.18,0,0,1,.26,2.49,10.25,10.25,0,0,1-.29,2.5,5.6,5.6,0,0,1-1,2.09,4.71,4.71,0,0,1-1.81,1.43,6.59,6.59,0,0,1-2.83.53H138.6Zm4.11,0h1.75a3.82,3.82,0,0,0,1.1-.18,2.81,2.81,0,0,0,1.09-.71,3.77,3.77,0,0,0,.82-1.42,7,7,0,0,0,.32-2.35,8,8,0,0,0-.3-2.39,4,4,0,0,0-.78-1.45,2.49,2.49,0,0,0-1.07-.71,4,4,0,0,0-1.16-.19h-1.77Z"/><path class="cls-7" d="M154.93,105.32h1.31v-9.4H155v-1.8h10.61v3.82h-1.91v-2H159v3.63l4.36-.11v1.88L159,101.2v4.12h4.91v-2.13h1.93v3.94H154.93Z"/><path class="cls-8" d="M182.28,94.12v1.81H181.2q-1,2.83-1.9,5.62t-1.9,5.58h-3.35q-1-2.77-1.92-5.58t-1.95-5.62h-1.06V94.12h5v1.81H173c.35,1.2.71,2.38,1.08,3.52s.73,2.31,1.1,3.5c.1.3.19.61.27.92s.17.62.28.93h.07c.1-.31.2-.62.29-.93s.17-.63.26-1c.37-1.16.73-2.33,1.07-3.5s.71-2.33,1.07-3.48h-1.13V94.12Z"/><path class="cls-9" d="M185.82,105.32h1.3v-9.4h-1.29v-1.8h10.62v3.82h-1.92v-2h-4.68v3.63l4.36-.11v1.88l-4.36-.12v4.12h4.91v-2.13h1.93v3.94H185.82Z"/><path class="cls-10" d="M200.63,105.33H202V95.92h-1.31v-1.8h5.4v1.8h-1.36v9.41h4.89V103h1.95v4.16h-10.9Z"/><path class="cls-11" d="M227,103.28a5.94,5.94,0,0,1-1.14,2.12,5.26,5.26,0,0,1-1.87,1.41,6.28,6.28,0,0,1-2.62.51,7.19,7.19,0,0,1-2.75-.48,5,5,0,0,1-1.9-1.36,5.68,5.68,0,0,1-1.11-2.11,9.58,9.58,0,0,1-.36-2.72,9.72,9.72,0,0,1,.35-2.63,6.28,6.28,0,0,1,1.09-2.16,5,5,0,0,1,1.9-1.46,6.69,6.69,0,0,1,2.78-.53,6.5,6.5,0,0,1,2.78.54A5.15,5.15,0,0,1,226,95.87,5.85,5.85,0,0,1,227,98a10.37,10.37,0,0,1,.32,2.61A9,9,0,0,1,227,103.28Zm-2.62-4.41a4.8,4.8,0,0,0-.48-1.54,3,3,0,0,0-.95-1.09,2.73,2.73,0,0,0-1.58-.42,2.92,2.92,0,0,0-1.6.41,2.89,2.89,0,0,0-1,1.08,4.82,4.82,0,0,0-.52,1.54,11.88,11.88,0,0,0-.14,1.82,6.66,6.66,0,0,0,.75,3.48,2.72,2.72,0,0,0,2.51,1.22,2.65,2.65,0,0,0,1.42-.36,2.84,2.84,0,0,0,1-1,4.86,4.86,0,0,0,.56-1.49,9.26,9.26,0,0,0,.18-1.89A13.09,13.09,0,0,0,224.33,98.87Z"/><path class="cls-12" d="M242,99.48a3.6,3.6,0,0,1-.74,1.3,3.8,3.8,0,0,1-1.31.94,4.49,4.49,0,0,1-1.93.37h-2.46v3.24h1.68v1.8h-5.66v-1.8h1.27V95.92h-1.27V94.1h6.2a4.61,4.61,0,0,1,3.33,1.07,3.78,3.78,0,0,1,1.12,2.89A4.79,4.79,0,0,1,242,99.48Zm-6.44.85h1.78a2.67,2.67,0,0,0,.8-.12,1.6,1.6,0,0,0,.65-.39,2,2,0,0,0,.44-.67,2.91,2.91,0,0,0,.16-1,2.3,2.3,0,0,0-.55-1.69,2.16,2.16,0,0,0-1.58-.54h-1.7Z"/><path class="cls-13" d="M254.88,101.58c.11-.29.23-.57.36-.85l.28-.68c.13-.31.27-.64.44-1l.51-1.18c.18-.42.35-.82.53-1.21l.64-1.49.44-1h4.76v1.8h-1.2v9.43h1.2v1.78h-5v-1.78H259V97.7h0c-.15.34-.3.68-.44,1l-.43,1-.6,1.41-.69,1.54c-.22.51-.44,1-.63,1.44s-.35.81-.47,1.09h-2.38c-.5-1-1-2-1.39-3l-1.38-3.09-.31-.72c-.11-.24-.22-.49-.32-.74h-.05c0,1.29,0,2.56,0,3.83s0,2.55,0,3.82H251v1.78H246v-1.78h1.31V95.92H246v-1.8h4.8c.17.39.36.81.57,1.27l.64,1.45.8,1.8c.28.62.54,1.23.79,1.82.18.37.33.72.47,1.06s.27.64.38.93h.1C254.64,102.16,254.76,101.87,254.88,101.58Z"/><path class="cls-14" d="M266.89,105.32h1.3v-9.4h-1.28v-1.8h10.61v3.82H275.6v-2h-4.68v3.63l4.36-.11v1.88l-4.36-.12v4.12h4.91v-2.13h1.94v3.94H266.89Z"/><path class="cls-15" d="M291.69,95.92H290.4v-1.8h5.08v1.8h-1.25v11.21h-2.65L289,103.22q-1.29-1.93-2.53-3.93l-.49-.8c-.15-.26-.32-.53-.5-.79h0s0,0,0,0v7.63h1.29v1.78h-5.11v-1.78H283c0-1.58,0-3.15,0-4.71s0-3.13,0-4.72h-1.31v-1.8h4.21c.46.74.88,1.41,1.27,2l1.13,1.76,1.08,1.7c.36.57.74,1.19,1.15,1.86.19.29.37.58.55.87s.37.59.55.89h.09Z"/><path class="cls-16" d="M301.92,105.33h1.55V95.92H301l0,2.12h-1.92V94.1h11.35V98h-1.91V95.92h-2.41v9.41h1.54v1.8h-5.78Z"/><path class="cls-17" d="M141.46,129.92a4.29,4.29,0,0,1-1.45-.72,3.32,3.32,0,0,1-1-1.2,3.58,3.58,0,0,1-.35-1.65,3.67,3.67,0,0,1,.74-2.21,6.38,6.38,0,0,1,2.27-1.85A4.8,4.8,0,0,1,141,121a3.85,3.85,0,0,1-.22-1.23,3.57,3.57,0,0,1,.16-1,2.68,2.68,0,0,1,.52-.93,2.83,2.83,0,0,1,1-.71,3.64,3.64,0,0,1,1.49-.27,3.7,3.7,0,0,1,1.55.28,2.79,2.79,0,0,1,1,.7,2.39,2.39,0,0,1,.51.88,2.76,2.76,0,0,1,.15.83,2.31,2.31,0,0,1-.22,1,3.32,3.32,0,0,1-.57.88,5.93,5.93,0,0,1-.83.73c-.31.22-.63.43-.95.63.25.34.52.7.81,1.07s.6.75.93,1.13l.64.74.67.72a6.47,6.47,0,0,0,.95-1.24,4.65,4.65,0,0,0,.56-1.51h-1.32v-1.65h4.62v1.65h-1.21a6.69,6.69,0,0,1-.76,2.14,8.33,8.33,0,0,1-1.44,1.88,15.86,15.86,0,0,0,1.34,1,8.54,8.54,0,0,0,1.37.78l-.89,1.53a8.15,8.15,0,0,1-.79-.39c-.28-.15-.58-.33-.88-.52s-.6-.39-.9-.61a9.6,9.6,0,0,1-.81-.66,7,7,0,0,1-2,.92,7.56,7.56,0,0,1-2.18.31A6.43,6.43,0,0,1,141.46,129.92Zm2.16-5-.85-1.07a4.92,4.92,0,0,0-1.26,1,2,2,0,0,0-.5,1.38,1.94,1.94,0,0,0,.71,1.64,2.72,2.72,0,0,0,1.77.56,3.87,3.87,0,0,0,1.24-.2,4.83,4.83,0,0,0,1.22-.57l-.73-.81-.69-.82Zm-.59-4.4a5.46,5.46,0,0,0,.54.94l.59-.35a2.69,2.69,0,0,0,.52-.41,1.86,1.86,0,0,0,.37-.49,1.23,1.23,0,0,0,.15-.61,1.08,1.08,0,0,0-.34-.83,1.35,1.35,0,0,0-.91-.31,1,1,0,0,0-.52.12.89.89,0,0,0-.34.3,1.56,1.56,0,0,0-.2.41,1.51,1.51,0,0,0-.06.41A1.93,1.93,0,0,0,143,120.48Z"/><path class="cls-18" d="M162.37,125.34a3.52,3.52,0,0,0,.65,1.42,2.8,2.8,0,0,0,1.21.85,5.43,5.43,0,0,0,1.83.27l.59,0,.79-.06.85-.13a5.53,5.53,0,0,0,.8-.19l.42,1.9c-.27.1-.57.19-.9.28s-.69.16-1.05.22-.72.1-1.09.13-.71.05-1,.05a7.35,7.35,0,0,1-3-.52,4.86,4.86,0,0,1-1.88-1.42,5.39,5.39,0,0,1-1-2.12,11.52,11.52,0,0,1,0-5,6,6,0,0,1,1-2.2,5.25,5.25,0,0,1,1.93-1.62,6.93,6.93,0,0,1,3.15-.63,11.07,11.07,0,0,1,1.9.14,9,9,0,0,1,1.57.39v3.65h-1.92v-2a4.83,4.83,0,0,0-.76-.13,6.41,6.41,0,0,0-.73,0,3.66,3.66,0,0,0-1.62.33,2.78,2.78,0,0,0-1.09,1,4.23,4.23,0,0,0-.61,1.48,8.74,8.74,0,0,0-.19,1.92A9.1,9.1,0,0,0,162.37,125.34Z"/><path class="cls-19" d="M182.86,126a6,6,0,0,1-1.13,2.13,5.38,5.38,0,0,1-1.88,1.41,6.28,6.28,0,0,1-2.62.51,7.1,7.1,0,0,1-2.74-.48,5,5,0,0,1-1.91-1.37,5.63,5.63,0,0,1-1.11-2.1,10.26,10.26,0,0,1,0-5.35,6.24,6.24,0,0,1,1.09-2.17,5.21,5.21,0,0,1,1.9-1.45,7.43,7.43,0,0,1,5.56,0,5.26,5.26,0,0,1,1.87,1.46,6,6,0,0,1,1,2.15,10.35,10.35,0,0,1,.32,2.6A8.68,8.68,0,0,1,182.86,126Zm-2.62-4.4a4.62,4.62,0,0,0-.48-1.55,3,3,0,0,0-.95-1.09,2.81,2.81,0,0,0-1.58-.41,3,3,0,0,0-1.6.4,3,3,0,0,0-1,1.08,4.64,4.64,0,0,0-.51,1.55,10.73,10.73,0,0,0-.15,1.82,6.71,6.71,0,0,0,.75,3.48,3.13,3.13,0,0,0,3.94.86,2.85,2.85,0,0,0,1-1,4.71,4.71,0,0,0,.56-1.48,9.33,9.33,0,0,0,.18-1.89A13,13,0,0,0,180.24,121.61Z"/><path class="cls-20" d="M195,118.65H193.7v-1.8h5.08v1.8h-1.25v11.22h-2.66c-.84-1.31-1.69-2.62-2.55-3.91s-1.69-2.61-2.53-3.93l-.48-.8c-.16-.27-.32-.53-.5-.8h0s0,0,0,0v7.64h1.29v1.78h-5.12v-1.78h1.31c0-1.58,0-3.15,0-4.71s0-3.14,0-4.73H185v-1.8h4.21c.45.75.88,1.42,1.27,2s.77,1.18,1.13,1.75l1.08,1.71q.54.86,1.14,1.86c.19.29.38.58.56.87s.37.58.54.89h.1Z"/><path class="cls-21" d="M202.31,126.82c0,.23,0,.47,0,.72a5.28,5.28,0,0,0,1.34.39,8.56,8.56,0,0,0,1.25.1,4.33,4.33,0,0,0,1.24-.15,2.12,2.12,0,0,0,.78-.4,1.39,1.39,0,0,0,.43-.57,1.63,1.63,0,0,0,.13-.64,1.36,1.36,0,0,0-.21-.77,1.82,1.82,0,0,0-.57-.53,4.84,4.84,0,0,0-.88-.38c-.33-.1-.7-.21-1.11-.31a16.31,16.31,0,0,1-1.7-.52,5.73,5.73,0,0,1-1.35-.72,3.28,3.28,0,0,1-.89-1,3,3,0,0,1-.32-1.43,3.7,3.7,0,0,1,.36-1.67,3.57,3.57,0,0,1,1-1.24,4.69,4.69,0,0,1,1.57-.76,6.94,6.94,0,0,1,2-.27,13.18,13.18,0,0,1,2.07.18,6.61,6.61,0,0,1,2,.66c0,.49,0,1,0,1.46s0,1,0,1.47h-1.93c0-.25,0-.5,0-.74s0-.48,0-.74a4.23,4.23,0,0,0-1-.24,8.71,8.71,0,0,0-1.06-.08,2.4,2.4,0,0,0-1.66.48,1.53,1.53,0,0,0-.54,1.21,1.2,1.2,0,0,0,.19.67,1.72,1.72,0,0,0,.54.49,3.81,3.81,0,0,0,.88.39,12.2,12.2,0,0,0,1.2.34c.54.16,1.08.32,1.61.5a5.14,5.14,0,0,1,1.41.69,3.34,3.34,0,0,1,1,1.08,3.26,3.26,0,0,1,.38,1.64,3.86,3.86,0,0,1-.38,1.75A3.37,3.37,0,0,1,209,129.1a4.75,4.75,0,0,1-1.71.72,9.59,9.59,0,0,1-2.23.24,15,15,0,0,1-2.38-.2,8.5,8.5,0,0,1-2.31-.71c0-.5,0-1,0-1.52s0-1,0-1.53h1.92C202.3,126.35,202.3,126.59,202.31,126.82Z"/><path class="cls-22" d="M214.33,128.07h1.55v-9.42h-2.44l0,2.12h-1.92v-3.94H222.9v3.94H221v-2.12h-2.41v9.42h1.54v1.8h-5.78Z"/><path class="cls-23" d="M228,128.05h1.39v1.82H224v-1.82h1.23v-9.4H224v-1.82h6.44a5.93,5.93,0,0,1,1.94.28,3.7,3.7,0,0,1,1.35.77,3.09,3.09,0,0,1,.8,1.21,4.46,4.46,0,0,1,.25,1.55,4.79,4.79,0,0,1-.11,1,3.62,3.62,0,0,1-.38,1,3.9,3.9,0,0,1-.69.85,2.84,2.84,0,0,1-1,.59l1.89,4.12,1.46.19v1.48a3.09,3.09,0,0,1-.51.15c-.19,0-.38.07-.58.09l-.56.06-.43,0a1.83,1.83,0,0,1-1.22-.35,3,3,0,0,1-.7-1l-1.87-4.26H228Zm3.84-8.34a1.65,1.65,0,0,0-.45-.61,1.62,1.62,0,0,0-.65-.34,2.9,2.9,0,0,0-.79-.11h-2v4.08h1.9a3.38,3.38,0,0,0,.76-.1,1.68,1.68,0,0,0,.67-.33,1.77,1.77,0,0,0,.48-.64,2.45,2.45,0,0,0,.19-1A2.31,2.31,0,0,0,231.79,119.71Z"/><path class="cls-24" d="M247.49,128.71a5.54,5.54,0,0,1-4.11,1.33,8,8,0,0,1-2.5-.34,4.2,4.2,0,0,1-1.68-1,3.7,3.7,0,0,1-1-1.55,6.72,6.72,0,0,1-.3-2.09v-6.43h-1.1v-1.82h5v1.82h-1.23v6.48a3,3,0,0,0,.72,2.23,3.35,3.35,0,0,0,4.1,0,2.93,2.93,0,0,0,.75-2.25v-6.48H245v-1.82h5v1.82H248.8v6.43A4.94,4.94,0,0,1,247.49,128.71Z"/><path class="cls-25" d="M254.56,125.34a3.53,3.53,0,0,0,.66,1.42,2.71,2.71,0,0,0,1.2.85,5.43,5.43,0,0,0,1.83.27l.6,0,.78-.06.85-.13a5.53,5.53,0,0,0,.8-.19l.42,1.9c-.27.1-.57.19-.9.28s-.69.16-1,.22-.73.1-1.09.13-.72.05-1.05.05a7.33,7.33,0,0,1-3-.52,4.82,4.82,0,0,1-1.89-1.42,5.37,5.37,0,0,1-1-2.12,11.34,11.34,0,0,1-.29-2.61,10.8,10.8,0,0,1,.27-2.35,6,6,0,0,1,1-2.2,5.28,5.28,0,0,1,1.94-1.62,6.88,6.88,0,0,1,3.14-.63,11.07,11.07,0,0,1,1.9.14,8.79,8.79,0,0,1,1.57.39v3.65h-1.91v-2a5.16,5.16,0,0,0-.77-.13,6.29,6.29,0,0,0-.73,0,3.66,3.66,0,0,0-1.62.33,2.78,2.78,0,0,0-1.09,1,4.23,4.23,0,0,0-.61,1.48,9.39,9.39,0,0,0-.19,1.92A9.1,9.1,0,0,0,254.56,125.34Z"/><path class="cls-26" d="M265.45,128.07H267v-9.42h-2.44l0,2.12h-1.92v-3.94H274v3.94H272.1v-2.12h-2.41v9.42h1.54v1.8h-5.78Z"/><path class="cls-27" d="M275.62,128.07h1.29v-9.42h-1.29v-1.82h5.29v1.82h-1.29v9.42h1.29v1.8h-5.29Z"/><path class="cls-28" d="M294.93,126a5.9,5.9,0,0,1-1.14,2.13,5.26,5.26,0,0,1-1.87,1.41,6.28,6.28,0,0,1-2.62.51,7.16,7.16,0,0,1-2.75-.48,4.92,4.92,0,0,1-1.9-1.37,5.63,5.63,0,0,1-1.11-2.1,10.26,10.26,0,0,1,0-5.35,6.08,6.08,0,0,1,1.09-2.17,5,5,0,0,1,1.9-1.45,7.43,7.43,0,0,1,5.56,0,5.22,5.22,0,0,1,1.86,1.46,6,6,0,0,1,1.05,2.15,10.35,10.35,0,0,1,.32,2.6A9,9,0,0,1,294.93,126Zm-2.63-4.4a4.61,4.61,0,0,0-.47-1.55,2.89,2.89,0,0,0-1-1.09,2.77,2.77,0,0,0-1.57-.41,2.92,2.92,0,0,0-1.6.4,3.17,3.17,0,0,0-1,1.08,5.14,5.14,0,0,0-.51,1.55,11.88,11.88,0,0,0-.14,1.82,6.71,6.71,0,0,0,.75,3.48,2.72,2.72,0,0,0,2.51,1.22,2.65,2.65,0,0,0,1.42-.36,2.88,2.88,0,0,0,1-1,4.71,4.71,0,0,0,.56-1.48,9.33,9.33,0,0,0,.18-1.89A11.56,11.56,0,0,0,292.3,121.61Z"/><path class="cls-29" d="M307.06,118.65h-1.29v-1.8h5.08v1.8h-1.26v11.22h-2.65c-.85-1.31-1.7-2.62-2.55-3.91s-1.69-2.61-2.53-3.93l-.48-.8c-.16-.27-.33-.53-.5-.8h0s0,0,0,0v7.64h1.29v1.78H297v-1.78h1.31c0-1.58,0-3.15,0-4.71s0-3.14,0-4.73H297v-1.8h4.21c.45.75.87,1.42,1.27,2l1.12,1.75,1.08,1.71c.36.57.75,1.19,1.15,1.86.19.29.38.58.56.87s.36.58.54.89h.1Z"/></svg>